{
  "accessors": [
    {
      "bufferView": 2,
      "componentType": 5126,
      "count": 7500,
      "max": [
        0.26538923382759094,
        0.2653891444206238,
        0.9819961190223694
      ],
      "min": [
        -0.26538920402526855,
        -0.26538923382759094,
        -0.00234157033264637
      ],
      "type": "VEC3"
    },
    {
      "bufferView": 2,
      "byteOffset": 90000,
      "componentType": 5126,
      "count": 7500,
      "max": [
        1.0,
        1.0,
        1.0
      ],
      "min": [
        -1.0,
        -1.0,
        -1.0
      ],
      "type": "VEC3"
    },
    {
      "bufferView": 3,
      "componentType": 5126,
      "count": 7500,
      "max": [
        0.9999938011169434,
        1.0,
        1.0,
        1.0
      ],
      "min": [
        -0.9994009137153625,
        -1.0,
        -0.9999998211860657,
        1.0
      ],
      "type": "VEC4"
    },
    {
      "bufferView": 1,
      "componentType": 5126,
      "count": 7500,
      "max": [
        0.964773416519165,
        0.935504138469696
      ],
      "min": [
        0.000244140625,
        0.0002441440592519939
      ],
      "type": "VEC2"
    },
    {
      "bufferView": 0,
      "componentType": 5125,
      "count": 37140,
      "type": "SCALAR"
    },
    {
      "bufferView": 2,
      "byteOffset": 180000,
      "componentType": 5126,
      "count": 3652,
      "max": [
        0.1682051420211792,
        0.1682051122188568,
        0.46261754631996155
      ],
      "min": [
        -0.16820508241653442,
        -0.1682051122188568,
        -5.702395222684231e-10
      ],
      "type": "VEC3"
    },
    {
      "bufferView": 2,
      "byteOffset": 223824,
      "componentType": 5126,
      "count": 3652,
      "max": [
        1.0,
        1.0,
        1.0
      ],
      "min": [
        -1.0,
        -1.0,
        -1.0
      ],
      "type": "VEC3"
    },
    {
      "bufferView": 3,
      "byteOffset": 120000,
      "componentType": 5126,
      "count": 3652,
      "max": [
        1.0,
        1.0,
        0.9999064803123474,
        1.0
      ],
      "min": [
        -1.0,
        -1.0,
        -0.9999846816062927,
        1.0
      ],
      "type": "VEC4"
    },
    {
      "bufferView": 1,
      "byteOffset": 60000,
      "componentType": 5126,
      "count": 3652,
      "max": [
        0.845702052116394,
        0.999436616897583
      ],
      "min": [
        0.00024414100334979594,
        0.0002441479009576142
      ],
      "type": "VEC2"
    },
    {
      "bufferView": 0,
      "byteOffset": 148560,
      "componentType": 5125,
      "count": 18576,
      "type": "SCALAR"
    },
    {
      "bufferView": 2,
      "byteOffset": 267648,
      "componentType": 5126,
      "count": 2031,
      "max": [
        0.09555245190858841,
        0.18866917490959167,
        0.49775296449661255
      ],
      "min": [
        -0.09555245190858841,
        -0.16734997928142548,
        -0.0008856374770402908
      ],
      "type": "VEC3"
    },
    {
      "bufferView": 2,
      "byteOffset": 292020,
      "componentType": 5126,
      "count": 2031,
      "max": [
        1.0,
        1.0,
        1.0
      ],
      "min": [
        -1.0,
        -1.0,
        -1.0
      ],
      "type": "VEC3"
    },
    {
      "bufferView": 3,
      "byteOffset": 178432,
      "componentType": 5126,
      "count": 2031,
      "max": [
        1.0,
        0.9999957084655762,
        1.0,
        1.0
      ],
      "min": [
        -1.0,
        -1.0,
        -0.9999909996986389,
        1.0
      ],
      "type": "VEC4"
    },
    {
      "bufferView": 1,
      "byteOffset": 89216,
      "componentType": 5126,
      "count": 2031,
      "max": [
        0.9434249997138977,
        0.9997376203536987
      ],
      "min": [
        0.000244140625,
        0.0002484035212546587
      ],
      "type": "VEC2"
    },
    {
      "bufferView": 0,
      "byteOffset": 222864,
      "componentType": 5125,
      "count": 8052,
      "type": "SCALAR"
    },
    {
      "bufferView": 2,
      "byteOffset": 316392,
      "componentType": 5126,
      "count": 1994,
      "max": [
        0.19917705655097961,
        0.18634916841983795,
        0.445025235414505
      ],
      "min": [
        -0.19917696714401245,
        -0.18634912371635437,
        3.0605615819467857e-09
      ],
      "type": "VEC3"
    },
    {
      "bufferView": 2,
      "byteOffset": 340320,
      "componentType": 5126,
      "count": 1994,
      "max": [
        1.0,
        1.0,
        1.0
      ],
      "min": [
        -1.0,
        -1.0,
        -1.0
      ],
      "type": "VEC3"
    },
    {
      "bufferView": 3,
      "byteOffset": 210928,
      "componentType": 5126,
      "count": 1994,
      "max": [
        0.9999992847442627,
        0.9999993443489075,
        0.9998263120651245,
        1.0
      ],
      "min": [
        -0.9999992847442627,
        -0.9999927282333374,
        -0.9997625946998596,
        1.0
      ],
      "type": "VEC4"
    },
    {
      "bufferView": 1,
      "byteOffset": 105464,
      "componentType": 5126,
      "count": 1994,
      "max": [
        0.965272068977356,
        0.999755859375
      ],
      "min": [
        0.000244140625,
        0.000244140625
      ],
      "type": "VEC2"
    },
    {
      "bufferView": 0,
      "byteOffset": 255072,
      "componentType": 5125,
      "count": 9288,
      "type": "SCALAR"
    },
    {
      "bufferView": 2,
      "byteOffset": 364248,
      "componentType": 5126,
      "count": 1090,
      "max": [
        0.3256112337112427,
        0.3123631775379181,
        0.1904471516609192
      ],
      "min": [
        -0.3267146348953247,
        -0.3123632073402405,
        0.0
      ],
      "type": "VEC3"
    },
    {
      "bufferView": 2,
      "byteOffset": 377328,
      "componentType": 5126,
      "count": 1090,
      "max": [
        0.996358335018158,
        1.0,
        1.0
      ],
      "min": [
        -0.9963582754135132,
        -1.0,
        -1.0
      ],
      "type": "VEC3"
    },
    {
      "bufferView": 3,
      "byteOffset": 242832,
      "componentType": 5126,
      "count": 1090,
      "max": [
        0.9987587928771973,
        0.9999711513519287,
        0.9987552762031555,
        1.0
      ],
      "min": [
        -0.999756932258606,
        -0.9982380270957947,
        -0.9997448921203613,
        1.0
      ],
      "type": "VEC4"
    },
    {
      "bufferView": 1,
      "byteOffset": 121416,
      "componentType": 5126,
      "count": 1090,
      "max": [
        0.49354296922683716,
        0.832071840763092
      ],
      "min": [
        0.00024535166448913515,
        0.5912290811538696
      ],
      "type": "VEC2"
    },
    {
      "bufferView": 0,
      "byteOffset": 292224,
      "componentType": 5125,
      "count": 5832,
      "type": "SCALAR"
    },
    {
      "bufferView": 2,
      "byteOffset": 390408,
      "componentType": 5126,
      "count": 1589,
      "max": [
        0.18791240453720093,
        0.2478226125240326,
        0.5283823013305664
      ],
      "min": [
        -0.18791237473487854,
        -0.23180028796195984,
        0.0
      ],
      "type": "VEC3"
    },
    {
      "bufferView": 2,
      "byteOffset": 409476,
      "componentType": 5126,
      "count": 1589,
      "max": [
        1.0,
        1.0,
        1.0
      ],
      "min": [
        -1.0,
        -1.0,
        -1.0
      ],
      "type": "VEC3"
    },
    {
      "bufferView": 3,
      "byteOffset": 260272,
      "componentType": 5126,
      "count": 1589,
      "max": [
        0.9998384714126587,
        0.999767005443573,
        0.9999899864196777,
        1.0
      ],
      "min": [
        -0.9999998807907104,
        -0.999998927116394,
        -1.0,
        1.0
      ],
      "type": "VEC4"
    },
    {
      "bufferView": 1,
      "byteOffset": 130136,
      "componentType": 5126,
      "count": 1589,
      "max": [
        0.9487003087997437,
        0.9994753003120422
      ],
      "min": [
        0.000244140625,
        0.00024483082233928144
      ],
      "type": "VEC2"
    },
    {
      "bufferView": 0,
      "byteOffset": 315552,
      "componentType": 5125,
      "count": 6498,
      "type": "SCALAR"
    },
    {
      "bufferView": 2,
      "byteOffset": 428544,
      "componentType": 5126,
      "count": 1807,
      "max": [
        0.13006602227687836,
        0.14065207540988922,
        0.3657267093658447
      ],
      "min": [
        -0.13006745278835297,
        -0.1605406403541565,
        0.0
      ],
      "type": "VEC3"
    },
    {
      "bufferView": 2,
      "byteOffset": 450228,
      "componentType": 5126,
      "count": 1807,
      "max": [
        1.0,
        1.0,
        1.0
      ],
      "min": [
        -1.0,
        -1.0,
        -1.0
      ],
      "type": "VEC3"
    },
    {
      "bufferView": 3,
      "byteOffset": 285696,
      "componentType": 5126,
      "count": 1807,
      "max": [
        0.9999929666519165,
        0.9999727010726929,
        0.9999581575393677,
        1.0
      ],
      "min": [
        -0.9999993443489075,
        -0.9996968507766724,
        -1.0,
        -1.0
      ],
      "type": "VEC4"
    },
    {
      "bufferView": 1,
      "byteOffset": 142848,
      "componentType": 5126,
      "count": 1807,
      "max": [
        0.9838849306106567,
        0.9992698431015015
      ],
      "min": [
        0.000244140625,
        0.00024567203945480287
      ],
      "type": "VEC2"
    },
    {
      "bufferView": 0,
      "byteOffset": 341544,
      "componentType": 5125,
      "count": 7668,
      "type": "SCALAR"
    },
    {
      "bufferView": 2,
      "byteOffset": 471912,
      "componentType": 5126,
      "count": 1733,
      "max": [
        0.2141955941915512,
        0.091761015355587,
        0.5606821179389954
      ],
      "min": [
        -0.22159135341644287,
        -0.09176605939865112,
        0.0
      ],
      "type": "VEC3"
    },
    {
      "bufferView": 2,
      "byteOffset": 492708,
      "componentType": 5126,
      "count": 1733,
      "max": [
        1.0,
        1.0,
        1.0
      ],
      "min": [
        -1.0,
        -1.0,
        -1.0
      ],
      "type": "VEC3"
    },
    {
      "bufferView": 3,
      "byteOffset": 314608,
      "componentType": 5126,
      "count": 1733,
      "max": [
        0.9999594688415527,
        1.0,
        0.9997767806053162,
        1.0
      ],
      "min": [
        -0.9999738931655884,
        -0.9999548196792603,
        -0.9998275637626648,
        1.0
      ],
      "type": "VEC4"
    },
    {
      "bufferView": 1,
      "byteOffset": 157304,
      "componentType": 5126,
      "count": 1733,
      "max": [
        0.821326732635498,
        0.9995383620262146
      ],
      "min": [
        0.000244140625,
        0.0002516245294827968
      ],
      "type": "VEC2"
    },
    {
      "bufferView": 0,
      "byteOffset": 372216,
      "componentType": 5125,
      "count": 6846,
      "type": "SCALAR"
    }
  ],
  "asset": {
    "extras": {
      "author": "carlcapu9 (https://sketchfab.com/carlcapu9)",
      "license": "CC-BY-4.0 (http://creativecommons.org/licenses/by/4.0/)",
      "source": "https://sketchfab.com/3d-models/plastic-containers-456e983ef46143a381d4aab6c6dc54f6",
      "title": "Plastic Containers"
    },
    "generator": "Sketchfab-16.72.0",
    "version": "2.0"
  },
  "bufferViews": [
    {
      "buffer": 0,
      "byteLength": 399600,
      "name": "floatBufferViews",
      "target": 34963
    },
    {
      "buffer": 0,
      "byteLength": 171168,
      "byteOffset": 399600,
      "byteStride": 8,
      "name": "floatBufferViews",
      "target": 34962
    },
    {
      "buffer": 0,
      "byteLength": 513504,
      "byteOffset": 570768,
      "byteStride": 12,
      "name": "floatBufferViews",
      "target": 34962
    },
    {
      "buffer": 0,
      "byteLength": 342336,
      "byteOffset": 1084272,
      "byteStride": 16,
      "name": "floatBufferViews",
      "target": 34962
    }
  ],
  "buffers": [
    {
      "byteLength": 1426608,
      "uri": "scene.bin"
    }
  ],
  "images": [
    {
      "uri": "textures/Containers_baseColor.png"
    },
    {
      "uri": "textures/Containers_metallicRoughness.png"
    },
    {
      "uri": "textures/Containers_normal.png"
    }
  ],
  "materials": [
    {
      "doubleSided": true,
      "name": "Containers",
      "normalTexture": {
        "index": 2
      },
      "pbrMetallicRoughness": {
        "baseColorTexture": {
          "index": 0
        },
        "metallicRoughnessTexture": {
          "index": 1
        }
      }
    }
  ],
  "meshes": [
    {
      "name": "Container_Containers_0",
      "primitives": [
        {
          "attributes": {
            "NORMAL": 1,
            "POSITION": 0,
            "TANGENT": 2,
            "TEXCOORD_0": 3
          },
          "indices": 4,
          "material": 0,
          "mode": 4
        }
      ]
    },
    {
      "name": "Container_1_Containers_0",
      "primitives": [
        {
          "attributes": {
            "NORMAL": 6,
            "POSITION": 5,
            "TANGENT": 7,
            "TEXCOORD_0": 8
          },
          "indices": 9,
          "material": 0,
          "mode": 4
        }
      ]
    },
    {
      "name": "Container_2_Containers_0",
      "primitives": [
        {
          "attributes": {
            "NORMAL": 11,
            "POSITION": 10,
            "TANGENT": 12,
            "TEXCOORD_0": 13
          },
          "indices": 14,
          "material": 0,
          "mode": 4
        }
      ]
    },
    {
      "name": "Container_3_Containers_0",
      "primitives": [
        {
          "attributes": {
            "NORMAL": 16,
            "POSITION": 15,
            "TANGENT": 17,
            "TEXCOORD_0": 18
          },
          "indices": 19,
          "material": 0,
          "mode": 4
        }
      ]
    },
    {
      "name": "Container_4_Containers_0",
      "primitives": [
        {
          "attributes": {
            "NORMAL": 21,
            "POSITION": 20,
            "TANGENT": 22,
            "TEXCOORD_0": 23
          },
          "indices": 24,
          "material": 0,
          "mode": 4
        }
      ]
    },
    {
      "name": "Container_5_Containers_0",
      "primitives": [
        {
          "attributes": {
            "NORMAL": 26,
            "POSITION": 25,
            "TANGENT": 27,
            "TEXCOORD_0": 28
          },
          "indices": 29,
          "material": 0,
          "mode": 4
        }
      ]
    },
    {
      "name": "Container_6_Containers_0",
      "primitives": [
        {
          "attributes": {
            "NORMAL": 31,
            "POSITION": 30,
            "TANGENT": 32,
            "TEXCOORD_0": 33
          },
          "indices": 34,
          "material": 0,
          "mode": 4
        }
      ]
    },
    {
      "name": "Container_7_Containers_0",
      "primitives": [
        {
          "attributes": {
            "NORMAL": 36,
            "POSITION": 35,
            "TANGENT": 37,
            "TEXCOORD_0": 38
          },
          "indices": 39,
          "material": 0,
          "mode": 4
        }
      ]
    }
  ],
  "nodes": [
    {
      "children": [
        1
      ],
      "matrix": [
        1.0,
        0.0,
        0.0,
        0.0,
        0.0,
        2.220446049250313e-16,
        -1.0,
        0.0,
        0.0,
        1.0,
        2.220446049250313e-16,
        0.0,
        0.0,
        0.0,
        0.0,
        1.0
      ],
      "name": "Sketchfab_model"
    },
    {
      "children": [
        2
      ],
      "matrix": [
        0.009999999776482582,
        0.0,
        0.0,
        0.0,
        0.0,
        0.0,
        0.009999999776482582,
        0.0,
        0.0,
        -0.009999999776482582,
        0.0,
        0.0,
        0.0,
        0.0,
        0.0,
        1.0
      ],
      "name": "4fdb9a5d20d24792b7d39e1823c7d4a7.fbx"
    },
    {
      "children": [
        3,
        5,
        7,
        9,
        11,
        13,
        15,
        17
      ],
      "name": "RootNode"
    },
    {
      "children": [
        4
      ],
      "matrix": [
        100.0,
        0.0,
        0.0,
        0.0,
        -0.0,
        -1.629206793918314e-05,
        -99.99999999999868,
        0.0,
        0.0,
        99.99999999999868,
        -1.629206793918314e-05,
        0.0,
        -68.8775405883789,
        0.8823096752166748,
        34.2298583984375,
        1.0
      ],
      "name": "Container"
    },
    {
      "mesh": 0,
      "name": "Container_Containers_0"
    },
    {
      "children": [
        6
      ],
      "matrix": [
        100.0,
        0.0,
        0.0,
        0.0,
        -0.0,
        -1.629206793918314e-05,
        -99.99999999999868,
        0.0,
        0.0,
        99.99999999999868,
        -1.629206793918314e-05,
        0.0,
        -12.430691719055176,
        0.026344135403633118,
        36.73015213012695,
        1.0
      ],
      "name": "Container_1"
    },
    {
      "mesh": 1,
      "name": "Container_1_Containers_0"
    },
    {
      "children": [
        8
      ],
      "matrix": [
        7.549789959870878e-06,
        0.0,
        99.9999999999997,
        0.0,
        99.99999999999838,
        -1.6292067961387602e-05,
        -7.549789954319763e-06,
        0.0,
        1.6292067972489832e-05,
        99.99999999999866,
        -1.2212453270876722e-12,
        0.0,
        40.39144515991211,
        0.026600249111652374,
        36.943443298339844,
        1.0
      ],
      "name": "Container_2"
    },
    {
      "mesh": 2,
      "name": "Container_2_Containers_0"
    },
    {
      "children": [
        10
      ],
      "matrix": [
        100.0,
        0.0,
        0.0,
        0.0,
        0.0,
        -1.629206793918314e-05,
        -99.99999999999868,
        0.0,
        0.0,
        99.99999999999868,
        -1.629206793918314e-05,
        0.0,
        90.30329895019531,
        0.00010193588968832046,
        34.3228874206543,
        1.0
      ],
      "name": "Container_3"
    },
    {
      "mesh": 3,
      "name": "Container_3_Containers_0"
    },
    {
      "children": [
        12
      ],
      "matrix": [
        100.0,
        0.0,
        0.0,
        0.0,
        -0.0,
        -1.629206793918314e-05,
        -99.99999999999868,
        0.0,
        0.0,
        99.99999999999868,
        -1.629206793918314e-05,
        0.0,
        -77.2079849243164,
        0.002060714177787304,
        -32.2944450378418,
        1.0
      ],
      "name": "Container_4"
    },
    {
      "mesh": 4,
      "name": "Container_4_Containers_0"
    },
    {
      "children": [
        14
      ],
      "matrix": [
        7.549789959870878e-06,
        0.0,
        -99.9999999999997,
        0.0,
        -99.99999999999838,
        -1.6292067961387602e-05,
        -7.549789954319763e-06,
        0.0,
        -1.6292067972489832e-05,
        99.99999999999866,
        -1.2212453270876722e-12,
        0.0,
        -10.763859748840332,
        0.0007837192388251424,
        -33.72940444946289,
        1.0
      ],
      "name": "Container_5"
    },
    {
      "mesh": 5,
      "name": "Container_5_Containers_0"
    },
    {
      "children": [
        16
      ],
      "matrix": [
        7.549789959870878e-06,
        0.0,
        -99.9999999999997,
        0.0,
        -99.99999999999838,
        -1.6292067961387602e-05,
        -7.549789954319763e-06,
        0.0,
        -1.6292067972489832e-05,
        99.99999999999866,
        -1.2212453270876722e-12,
        0.0,
        36.739349365234375,
        -0.021992623805999756,
        -34.11384201049805,
        1.0
      ],
      "name": "Container_6"
    },
    {
      "mesh": 6,
      "name": "Container_6_Containers_0"
    },
    {
      "children": [
        18
      ],
      "matrix": [
        100.0,
        0.0,
        0.0,
        0.0,
        0.0,
        -1.629206793918314e-05,
        -99.99999999999868,
        0.0,
        0.0,
        99.99999999999868,
        -1.629206793918314e-05,
        0.0,
        84.6069107055664,
        0.015419535338878632,
        -33.76860046386719,
        1.0
      ],
      "name": "Container_7"
    },
    {
      "mesh": 7,
      "name": "Container_7_Containers_0"
    }
  ],
  "samplers": [
    {
      "magFilter": 9729,
      "minFilter": 9987,
      "wrapS": 10497,
      "wrapT": 10497
    }
  ],
  "scene": 0,
  "scenes": [
    {
      "name": "Sketchfab_Scene",
      "nodes": [
        0
      ]
    }
  ],
  "textures": [
    {
      "sampler": 0,
      "source": 0
    },
    {
      "sampler": 0,
      "source": 1
    },
    {
      "sampler": 0,
      "source": 2
    }
  ]
}
