{
  "accessors": [
    {
      "bufferView": 2,
      "componentType": 5126,
      "count": 178,
      "max": [
        102.72807312011719,
        100.00000762939453,
        102.72808837890625
      ],
      "min": [
        -102.72807312011719,
        -99.99998474121094,
        -102.72807312011719
      ],
      "type": "VEC3"
    },
    {
      "bufferView": 2,
      "byteOffset": 2136,
      "componentType": 5126,
      "count": 178,
      "max": [
        0.9238797426223755,
        1.0,
        0.9238797426223755
      ],
      "min": [
        -0.9238797426223755,
        -1.0,
        -0.9238797426223755
      ],
      "type": "VEC3"
    },
    {
      "bufferView": 3,
      "componentType": 5126,
      "count": 178,
      "max": [
        0.9820427894592285,
        0.1671416461467743,
        0.9820427894592285,
        1.0
      ],
      "min": [
        -0.9820428490638733,
        -0.16714152693748474,
        -0.9820429086685181,
        1.0
      ],
      "type": "VEC4"
    },
    {
      "bufferView": 1,
      "componentType": 5126,
      "count": 178,
      "max": [
        0.7701330184936523,
        0.9513069987297058
      ],
      "min": [
        0.004162999801337719,
        0.04869300127029419
      ],
      "type": "VEC2"
    },
    {
      "bufferView": 0,
      "componentType": 5125,
      "count": 288,
      "type": "SCALAR"
    },
    {
      "bufferView": 2,
      "byteOffset": 4272,
      "componentType": 5126,
      "count": 167,
      "max": [
        100.0,
        100.0,
        99.99993896484375
      ],
      "min": [
        -100.00001525878906,
        -135.1768341064453,
        -100.00009155273438
      ],
      "type": "VEC3"
    },
    {
      "bufferView": 2,
      "byteOffset": 6276,
      "componentType": 5126,
      "count": 167,
      "max": [
        0.9939653873443604,
        1.0,
        0.9939653873443604
      ],
      "min": [
        -0.9939653873443604,
        -1.0,
        -0.9939653873443604
      ],
      "type": "VEC3"
    },
    {
      "bufferView": 3,
      "byteOffset": 2848,
      "componentType": 5126,
      "count": 167,
      "max": [
        1.0,
        0.36415526270866394,
        0.9945108294487,
        1.0
      ],
      "min": [
        -0.9974199533462524,
        -0.3590514659881592,
        -0.9707461595535278,
        1.0
      ],
      "type": "VEC4"
    },
    {
      "bufferView": 1,
      "byteOffset": 1424,
      "componentType": 5126,
      "count": 167,
      "max": [
        0.9712679982185364,
        0.614467978477478
      ],
      "min": [
        0.009921000339090824,
        0.049414001405239105
      ],
      "type": "VEC2"
    },
    {
      "bufferView": 0,
      "byteOffset": 1152,
      "componentType": 5125,
      "count": 480,
      "type": "SCALAR"
    },
    {
      "bufferView": 2,
      "byteOffset": 8280,
      "componentType": 5126,
      "count": 38,
      "max": [
        5.0,
        4.999999046325684,
        -6.130287170410156
      ],
      "min": [
        -5.0,
        -5.0,
        -16.130287170410156
      ],
      "type": "VEC3"
    },
    {
      "bufferView": 2,
      "byteOffset": 8736,
      "componentType": 5126,
      "count": 38,
      "max": [
        0.9974219799041748,
        0.9974219799041748,
        0.9974219799041748
      ],
      "min": [
        -0.9974219799041748,
        -0.9974219799041748,
        -0.9974218606948853
      ],
      "type": "VEC3"
    },
    {
      "bufferView": 3,
      "byteOffset": 5520,
      "componentType": 5126,
      "count": 38,
      "max": [
        0.9975433945655823,
        0.9987118244171143,
        0.05067744478583336,
        1.0
      ],
      "min": [
        -0.9975433945655823,
        -0.9987117052078247,
        -0.9985730648040771,
        1.0
      ],
      "type": "VEC4"
    },
    {
      "bufferView": 1,
      "byteOffset": 2760,
      "componentType": 5126,
      "count": 38,
      "max": [
        0.9135630130767822,
        0.7438279986381531
      ],
      "min": [
        0.7246959805488586,
        0.4846389889717102
      ],
      "type": "VEC2"
    },
    {
      "bufferView": 0,
      "byteOffset": 3072,
      "componentType": 5125,
      "count": 132,
      "type": "SCALAR"
    },
    {
      "bufferView": 2,
      "byteOffset": 9192,
      "componentType": 5126,
      "count": 135,
      "max": [
        5.0,
        4.999999046325684,
        4.999996185302734
      ],
      "min": [
        -5.0,
        -5.0,
        -4.999996185302734
      ],
      "type": "VEC3"
    },
    {
      "bufferView": 2,
      "byteOffset": 10812,
      "componentType": 5126,
      "count": 135,
      "max": [
        1.0,
        1.0,
        1.0
      ],
      "min": [
        -1.0,
        -1.0,
        -1.0
      ],
      "type": "VEC3"
    },
    {
      "bufferView": 3,
      "byteOffset": 6128,
      "componentType": 5126,
      "count": 135,
      "max": [
        1.0,
        1.0,
        0.7071068286895752,
        1.0
      ],
      "min": [
        -0.7071068286895752,
        -1.0,
        -0.7071068286895752,
        1.0
      ],
      "type": "VEC4"
    },
    {
      "bufferView": 1,
      "byteOffset": 3064,
      "componentType": 5126,
      "count": 135,
      "max": [
        0.9958369731903076,
        0.8837460279464722
      ],
      "min": [
        0.7990139722824097,
        0.6239759922027588
      ],
      "type": "VEC2"
    },
    {
      "bufferView": 0,
      "byteOffset": 3600,
      "componentType": 5125,
      "count": 576,
      "type": "SCALAR"
    }
  ],
  "asset": {
    "extras": {
      "author": "max_imum (https://sketchfab.com/max_imum)",
      "license": "CC-BY-4.0 (http://creativecommons.org/licenses/by/4.0/)",
      "source": "https://sketchfab.com/3d-models/dice-game-aa30ba78dc284838b0afc23b153a9352",
      "title": "Dice Game"
    },
    "generator": "Sketchfab-15.31.0",
    "version": "2.0"
  },
  "bufferViews": [
    {
      "buffer": 0,
      "byteLength": 5904,
      "name": "floatBufferViews",
      "target": 34963
    },
    {
      "buffer": 0,
      "byteLength": 4144,
      "byteOffset": 5904,
      "byteStride": 8,
      "name": "floatBufferViews",
      "target": 34962
    },
    {
      "buffer": 0,
      "byteLength": 12432,
      "byteOffset": 10048,
      "byteStride": 12,
      "name": "floatBufferViews",
      "target": 34962
    },
    {
      "buffer": 0,
      "byteLength": 8288,
      "byteOffset": 22480,
      "byteStride": 16,
      "name": "floatBufferViews",
      "target": 34962
    }
  ],
  "buffers": [
    {
      "byteLength": 30768,
      "uri": "ltf.bin"
    }
  ],
  "images": [
    {
      "uri": "textures/M_Wuerfeln_baseColor.jpeg"
    },
    {
      "uri": "textures/M_Wuerfeln_metallicRoughness.png"
    },
    {
      "uri": "textures/M_Wuerfeln_normal.png"
    }
  ],
  "materials": [
    {
      "doubleSided": true,
      "name": "M_Wuerfeln",
      "normalTexture": {
        "index": 2
      },
      "pbrMetallicRoughness": {
        "baseColorTexture": {
          "index": 0
        },
        "metallicRoughnessTexture": {
          "index": 1
        }
      }
    }
  ],
  "meshes": [
    {
      "name": "defaultMaterial",
      "primitives": [
        {
          "attributes": {
            "NORMAL": 1,
            "POSITION": 0,
            "TANGENT": 2,
            "TEXCOORD_0": 3
          },
          "indices": 4,
          "material": 0,
          "mode": 4
        }
      ]
    },
    {
      "name": "defaultMaterial",
      "primitives": [
        {
          "attributes": {
            "NORMAL": 6,
            "POSITION": 5,
            "TANGENT": 7,
            "TEXCOORD_0": 8
          },
          "indices": 9,
          "material": 0,
          "mode": 4
        }
      ]
    },
    {
      "name": "defaultMaterial",
      "primitives": [
        {
          "attributes": {
            "NORMAL": 11,
            "POSITION": 10,
            "TANGENT": 12,
            "TEXCOORD_0": 13
          },
          "indices": 14,
          "material": 0,
          "mode": 4
        }
      ]
    },
    {
      "name": "defaultMaterial",
      "primitives": [
        {
          "attributes": {
            "NORMAL": 16,
            "POSITION": 15,
            "TANGENT": 17,
            "TEXCOORD_0": 18
          },
          "indices": 19,
          "material": 0,
          "mode": 4
        }
      ]
    }
  ],
  "nodes": [
    {
      "children": [
        1
      ],
      "matrix": [
        1.0,
        0.0,
        0.0,
        0.0,
        0.0,
        2.220446049250313e-16,
        -1.0,
        0.0,
        0.0,
        1.0,
        2.220446049250313e-16,
        0.0,
        0.0,
        0.0,
        0.0,
        1.0
      ],
      "name": "Sketchfab_model"
    },
    {
      "children": [
        2,
        4,
        6
      ],
      "matrix": [
        1.0,
        0.0,
        0.0,
        0.0,
        0.0,
        -4.371139006309477e-08,
        0.999999999999999,
        0.0,
        0.0,
        -0.999999999999999,
        -4.371139006309477e-08,
        0.0,
        0.0,
        0.0,
        0.0,
        1.0
      ],
      "name": "Collada visual scene group"
    },
    {
      "children": [
        3
      ],
      "matrix": [
        0.677191,
        0.0,
        0.0,
        0.0,
        0.0,
        0.088603,
        0.0,
        0.0,
        0.0,
        0.0,
        0.677191,
        0.0,
        0.0,
        8.860325,
        -100.0,
        1.0
      ],
      "name": "pCylinder2"
    },
    {
      "mesh": 0,
      "name": "defaultMaterial"
    },
    {
      "children": [
        5
      ],
      "matrix": [
        0.180239,
        0.0,
        0.0,
        0.0,
        0.0,
        0.180239,
        0.0,
        0.0,
        0.0,
        0.0,
        0.180239,
        0.0,
        0.0,
        24.364143,
        26.274767,
        1.0
      ],
      "name": "pCylinder1"
    },
    {
      "mesh": 1,
      "name": "defaultMaterial"
    },
    {
      "children": [
        7,
        9
      ],
      "matrix": [
        1.0,
        0.0,
        0.0,
        0.0,
        0.0,
        1.0,
        0.0,
        0.0,
        0.0,
        0.0,
        1.0,
        0.0,
        0.0,
        5.0,
        0.0,
        1.0
      ],
      "name": "pCube3"
    },
    {
      "children": [
        8
      ],
      "matrix": [
        1.0,
        0.0,
        0.0,
        0.0,
        0.0,
        1.0,
        0.0,
        0.0,
        0.0,
        0.0,
        1.0,
        0.0,
        0.0,
        0.0,
        -6.882478,
        1.0
      ],
      "name": "polySurface1"
    },
    {
      "mesh": 2,
      "name": "defaultMaterial"
    },
    {
      "children": [
        10
      ],
      "matrix": [
        1.0,
        0.0,
        0.0,
        0.0,
        0.0,
        1.0,
        0.0,
        0.0,
        0.0,
        0.0,
        1.0,
        0.0,
        0.0,
        0.0,
        -1.52512,
        1.0
      ],
      "name": "polySurface2"
    },
    {
      "mesh": 3,
      "name": "defaultMaterial"
    }
  ],
  "samplers": [
    {
      "magFilter": 9729,
      "minFilter": 9987,
      "wrapS": 10497,
      "wrapT": 10497
    }
  ],
  "scene": 0,
  "scenes": [
    {
      "name": "Sketchfab_Scene",
      "nodes": [
        0
      ]
    }
  ],
  "textures": [
    {
      "sampler": 0,
      "source": 0
    },
    {
      "sampler": 0,
      "source": 1
    },
    {
      "sampler": 0,
      "source": 2
    }
  ]
}
